#!OML:ASF F:\VICON\USERDATA\Patient Classification 1\PLAYGROUND\JustinFriday\JustinFriday.ASF
:FULLY-SPECIFIED
:DEGREES
2764
root 13.1919 22.9983 25.9435 -216.321 -178.268 -184.453
lowerback 28.2859 0.246913 2.43632
upperback 6.6865 1.40371 3.78492
thorax -8.16946 0.651203 2.33875
lowerneck 6.20278 -18.3584 -12.9105
upperneck -4.97508 -25.159 17.2442
head 1.37271 -12.8318 6.41188
rclavicle 7.55382e-015 -4.77083e-015
rhumerus 93.2281 2.29485 -55.4927
rradius 20.5302
rwrist 19.3385
rhand 33.5211 -35.4049
rfingers 7.12502
rthumb 56.8417 -52.1221
lclavicle 7.55382e-015 -4.77083e-015
lhumerus 89.2951 3.64633 53.8474
lradius 16.9145
lwrist -24.0222
lhand -29.2658 9.35212
lfingers 7.12502
lthumb -2.6084 39.3159
rfemur -41.9558 -5.63477 35.0938
rtibia 44.6311
rfoot -12.4409 -5.44404
rtoes 25.9675
lfemur -39.385 2.61074 -10.7246
ltibia 40.698
lfoot -10.0397 -10.3553
ltoes 59.7058
2765
root 13.1748 23.0199 25.963 -216.376 -178.212 -184.425
lowerback 27.7946 0.237466 2.28777
upperback 6.95584 1.30963 3.76078
thorax -7.62486 0.610136 2.42454
lowerneck 5.59032 -18.5337 -12.7033
upperneck -4.60875 -25.3604 17.0555
head 1.55211 -12.8982 6.23206
rclavicle 5.96354e-015 -1.19271e-014
rhumerus 93.2985 2.40719 -55.3601
rradius 21.1486
rwrist 19.0803
rhand 33.6497 -35.8406
rfingers 7.12502
rthumb 56.9548 -52.4641
lclavicle 5.96354e-015 -1.19271e-014
lhumerus 89.1503 4.03586 52.8609
lradius 16.8859
lwrist -23.2166
lhand -30.3783 9.63013
lfingers 7.12502
lthumb -3.68282 39.5781
rfemur -41.7627 -5.46935 35.1526
rtibia 44.6848
rfoot -12.6214 -5.75777
rtoes 25.6555
lfemur -38.9245 2.70595 -10.6515
ltibia 40.3139
lfoot -9.8144 -10.8617
ltoes 60.0051
2766
root 13.1553 23.0499 25.9749 -216.644 -178.956 -183.834
lowerback 27.6978 0.244045 1.35313
upperback 7.05636 1.02606 3.50764
thorax -7.46805 0.484098 2.77494
lowerneck 5.79503 -18.6629 -12.6679
upperneck -4.78901 -25.5348 17.1377
head 1.49892 -12.9983 6.26215
rclavicle 8.74653e-015 -3.18055e-015
rhumerus 92.7892 2.36001 -52.4856
rradius 20.6787
rwrist 16.1336
rhand 29.0668 -34.8519
rfingers 7.12502
rthumb 52.866 -54.4287
lclavicle 8.74653e-015 -3.18055e-015
lhumerus 88.5502 4.449 50.4722
lradius 17.168
lwrist -20.9964
lhand -31.0396 10.3595
lfingers 7.12502
lthumb -4.32138 40.2954
rfemur -41.4364 -5.7265 34.1221
rtibia 44.8196
rfoot -13.0575 -5.75956
rtoes 25.1399
lfemur -38.2389 2.98812 -11.8577
ltibia 39.7858
lfoot -9.16573 -11.2218
ltoes 60.1629
2767
root 13.1399 23.0677 25.9911 -216.704 -179.422 -183.559
lowerback 27.5706 0.252202 0.833349
upperback 6.84192 0.891809 3.4469
thorax -7.64721 0.427472 3.05381
lowerneck 7.20082 -18.7094 -13.224
upperneck -5.35197 -25.7264 17.5388
head 1.26898 -13.1641 6.58537
rclavicle -4.87022e-015 1.07344e-014
rhumerus 92.5987 2.92738 -53.859
rradius 21.7962
rwrist 17.5271
rhand 33.2126 -36.5218
rfingers 7.12502
rthumb 56.5697 -53.4607
lclavicle -4.87022e-015 1.07344e-014
lhumerus 87.9306 4.10725 50.4458
lradius 17.1668
lwrist -20.9498
lhand -30.8962 9.3837
lfingers 7.12502
lthumb -4.18293 39.3224
rfemur -41.3392 -5.72739 33.4687
rtibia 44.8831
rfoot -13.4964 -5.72293
rtoes 25.0326
lfemur -37.8887 3.24603 -12.5304
ltibia 39.3647
lfoot -8.53047 -11.4997
ltoes 60.4011
2768
root 13.1254 23.0814 26.0148 -216.565 -179.192 -183.902
lowerback 27.09 0.121873 1.04633
upperback 6.64428 0.782943 3.54707
thorax -7.62463 0.373469 3.07567
lowerneck 8.56181 -18.641 -13.613
upperneck -5.70683 -25.7749 17.7991
head 1.0473 -13.2537 6.85877
rclavicle -4.37326e-015 1.39149e-014
rhumerus 91.9283 3.1681 -50.3593
rradius 21.0227
rwrist 13.912
rhand 28.3022 -35.3261
rfingers 7.12502
rthumb 52.1742 -55.3276
lclavicle -4.37326e-015 1.39149e-014
lhumerus 87.3992 3.80523 52.0085
lradius 16.8814
lwrist -22.7042
lhand -30.8902 8.85469
lfingers 7.12502
lthumb -4.17709 38.7935
rfemur -41.3017 -5.32232 33.7723
rtibia 44.8339
rfoot -13.9557 -5.81578
rtoes 26.3719
lfemur -37.7637 3.67573 -12.1599
ltibia 39.0445
lfoot -8.01742 -11.8723
ltoes 60.5105
2769
root 13.1097 23.0972 26.0424 -216.655 -178.803 -184.376
lowerback 27.1288 -0.00345903 1.47135
upperback 6.30432 0.761277 3.65435
thorax -8.02017 0.359568 2.96233
lowerneck 10.326 -18.4737 -13.9375
upperneck -6.35738 -25.6996 18.2027
head 0.671314 -13.3079 7.24412
rclavicle -8.74653e-015 -2.70347e-014
rhumerus 91.6508 4.04113 -53.5508
rradius 21.912
rwrist 16.7629
rhand 34.3842 -36.5007
rfingers 7.12502
rthumb 57.5994 -52.5762
lclavicle -8.74653e-015 -2.70347e-014
lhumerus 86.5345 3.45541 51.3537
lradius 16.9575
lwrist -22.3016
lhand -30.8447 8.78016
lfingers 7.12502
lthumb -4.13315 38.7198
rfemur -40.9228 -4.97803 34.3305
rtibia 44.7033
rfoot -14.3438 -5.98813
rtoes 26.7952
lfemur -37.4125 4.33877 -11.615
ltibia 38.7968
lfoot -7.31941 -12.4596
ltoes 60.5442
2770
root 13.093 23.1153 26.0582 -216.747 -178.907 -184.304
lowerback 27.0491 0.0143662 1.24633
upperback 6.08597 0.727196 3.64047
thorax -8.22666 0.348811 3.09069
lowerneck 12.6448 -18.2455 -14.4004
upperneck -7.88661 -25.5222 19.1257
head 0.0290527 -13.3612 7.91576
rclavicle 1.55052e-014 4.29375e-014
rhumerus 90.8173 4.13851 -49.9699
rradius 21.7292
rwrist 13.2031
rhand 30.312 -35.5922
rfingers 7.12502
rthumb 53.9872 -54.4389
lclavicle 1.55052e-014 4.29375e-014
lhumerus 85.841 3.20988 49.6832
lradius 17.2053
lwrist -20.7
lhand -30.8084 8.96421
lfingers 7.12502
lthumb -4.09809 38.9045
rfemur -40.6787 -4.8155 34.1838
rtibia 44.5941
rfoot -14.5253 -6.22717
rtoes 26.5212
lfemur -36.9786 4.46074 -11.7354
ltibia 38.4512
lfoot -6.98801 -12.9304
ltoes 60.7235
2771
root 13.0761 23.1436 26.0637 -216.65 -179.59 -183.788
lowerback 26.6994 0.0352789 0.486799
upperback 6.55128 0.503876 3.47747
thorax -7.52471 0.24603 3.40915
lowerneck 11.2894 -18.6608 -14.2185
upperneck -7.93166 -25.9081 19.1818
head 0.272691 -13.5008 7.71288
rclavicle -5.76476e-015 -4.69132e-014
rhumerus 91.3804 3.55594 -48.5902
rradius 22.1394
rwrist 11.9175
rhand 29.9097 -35.8946
rfingers 7.12502
rthumb 53.6257 -54.9825
lclavicle -5.76476e-015 -4.69132e-014
lhumerus 86.23 3.93397 48.6988
lradius 17.5226
lwrist -19.6933
lhand -30.7492 9.141
lfingers 7.12502
lthumb -4.04097 39.0824
rfemur -40.6999 -4.69562 33.182
rtibia 44.5395
rfoot -14.8265 -6.34162
rtoes 26.6906
lfemur -36.7981 4.43895 -12.6651
ltibia 38.0227
lfoot -6.65282 -12.8216
ltoes 60.7896
2772
root 13.0625 23.1768 26.0727 -216.679 -180.165 -183.435
lowerback 26.4236 -0.0431301 -0.0632713
upperback 6.70554 0.224413 3.26237
thorax -7.19978 0.11297 3.57082
lowerneck 10.6558 -18.912 -14.3434
upperneck -7.2527 -26.2818 19.0264
head 0.621421 -13.6435 7.52299
rclavicle 7.25564e-015 3.57812e-015
rhumerus 91.4466 3.6371 -48.5829
rradius 22.5042
rwrist 11.7589
rhand 30.3015 -36.1219
rfingers 7.12502
rthumb 53.9778 -54.9749
lclavicle 7.25564e-015 3.57812e-015
lhumerus 86.2138 4.03316 49.0873
lradius 17.5457
lwrist -20.2747
lhand -30.7024 9.00154
lfingers 7.12502
lthumb -3.9958 38.9438
rfemur -40.5364 -4.71602 32.3653
rtibia 44.5998
rfoot -15.2796 -6.29421
rtoes 26.8884
lfemur -36.4834 4.48114 -13.4131
ltibia 37.6929
lfoot -6.3016 -12.8734
ltoes 60.7048
2773
root 13.0515 23.2013 26.0822 -216.738 -180.098 -183.705
lowerback 26.3619 -0.206661 0.12104
upperback 6.70412 0.0599002 3.27645
thorax -7.16029 0.0305753 3.53101
lowerneck 10.3093 -19.0726 -14.4082
upperneck -6.54591 -26.5562 18.7417
head 0.890928 -13.7454 7.33784
rclavicle -9.93923e-017 5.96354e-015
rhumerus 91.4795 4.09353 -49.867
rradius 22.842
rwrist 12.8085
rhand 32.067 -36.2725
rfingers 7.12502
rthumb 55.5551 -54.0019
lclavicle -9.93923e-017 5.96354e-015
lhumerus 85.9757 3.93446 50.0301
lradius 17.4474
lwrist -21.4706
lhand -30.6981 8.74104
lfingers 7.12502
lthumb -3.9916 38.6834
rfemur -40.3243 -5.03097 32.7846
rtibia 44.6397
rfoot -15.5226 -6.33642
rtoes 25.8898
lfemur -36.2224 4.62684 -13.1339
ltibia 37.4634
lfoot -5.99074 -12.9722
ltoes 60.6313
2774
root 13.0413 23.2069 26.1144 -216.679 -179.658 -184.431
lowerback 26.2158 -0.413111 0.8398
upperback 6.69507 -0.00395995 3.48894
thorax -7.09432 -0.00843263 3.3688
lowerneck 10.2525 -19.2165 -14.5133
upperneck -6.29751 -26.7889 18.5623
head 0.995629 -13.8473 7.25108
rclavicle 1.00386e-014 -2.10712e-014
rhumerus 91.6886 4.75958 -53.4474
rradius 23.265
rwrist 16.1824
rhand 36.3281 -35.9158
rfingers 7.12502
rthumb 59.288 -50.4224
lclavicle 1.00386e-014 -2.10712e-014
lhumerus 85.7032 4.02013 50.3563
lradius 17.4987
lwrist -21.9354
lhand -30.6289 8.54817
lfingers 7.12502
lthumb -3.92474 38.4918
rfemur -40.2633 -4.6006 33.7174
rtibia 44.7251
rfoot -15.6542 -7.20125
rtoes 24.57
lfemur -36.2618 4.96298 -12.2293
ltibia 37.3667
lfoot -5.47587 -12.9576
ltoes 60.6534
2775
root 13.0246 23.2342 26.1275 -216.658 -179.646 -184.724
lowerback 25.893 -0.499942 1.11689
upperback 6.67198 -0.0498127 3.52703
thorax -6.95699 -0.0337565 3.25864
lowerneck 11.1337 -19.2949 -14.8587
upperneck -6.76775 -26.9883 18.9201
head 0.85341 -13.9969 7.48394
rclavicle 7.05686e-015 1.63003e-014
rhumerus 91.1459 4.75844 -50.2134
rradius 23.1528
rwrist 13.0545
rhand 31.727 -36.619
rfingers 7.12502
rthumb 55.2526 -54.5734
lclavicle 7.05686e-015 1.63003e-014
lhumerus 85.9989 3.83845 52.9685
lradius 16.8584
lwrist -24.5137
lhand -30.5425 7.7168
lfingers 7.12502
lthumb -3.8413 37.6619
rfemur -40.1598 -4.63362 34.0425
rtibia 44.6681
rfoot -15.7449 -7.44975
rtoes 24.2046
lfemur -36.1546 4.96292 -11.9223
ltibia 37.2317
lfoot -5.15634 -13.0254
ltoes 60.7841
